<?xml version="1.0" encoding="utf-8"?>
<!-- Generator: Adobe Illustrator 16.0.0, SVG Export Plug-In . SVG Version: 6.00 Build 0)  -->
<!DOCTYPE svg PUBLIC "-//W3C//DTD SVG 1.1//EN" "http://www.w3.org/Graphics/SVG/1.1/DTD/svg11.dtd">
<svg version="1.1" xmlns="http://www.w3.org/2000/svg" xmlns:xlink="http://www.w3.org/1999/xlink" x="0px" y="0px" width="57px"
	 height="35px" viewBox="0 0 57 35" enable-background="new 0 0 57 35" xml:space="preserve">
<g id="Layer_2">
	<g>
		<g id="XMLID_1_">
			<g>
				<polygon fill="#FFFFFF" points="40.942,34.75 41.089,35.164 37.234,35.164 37.092,34.75 				"/>
				<polygon fill="#FFFFFF" points="40.511,1.837 40.265,2.45 36.36,2.45 36.606,1.837 				"/>
				<polygon fill="#2D59A8" points="31.978,20.355 37.092,34.75 31.978,34.75 				"/>
				<polygon fill="#2D59A8" points="36.36,2.45 31.978,13.328 31.978,2.45 				"/>
				<rect x="28.695" y="34.75" fill="#FFFFFF" width="3.282" height="0.414"/>
				<rect x="28.695" y="1.837" fill="#FFFFFF" width="3.282" height="0.613"/>
				<path fill="#2D59A8" d="M28.695,2.45v32.3H16.454c0.367-0.385,0.712-0.854,1.02-1.421c0.967-1.78,1.452-4.041,1.452-6.774
					c0-1.403-0.137-2.7-0.414-3.884c-0.273-1.188-0.74-2.432-1.402-3.728c-0.264-0.53-1.01-1.805-2.25-3.83
					c-1.324-2.191-2.123-3.615-2.384-4.282c-0.196-0.497-0.289-1.027-0.289-1.586s0.137-1.06,0.407-1.507
					c0.271-0.443,0.619-0.667,1.044-0.667c0.874,0,1.738,1.147,2.58,3.445l2.403-4.149c-0.79-1.801-1.539-3.105-2.229-3.917H28.695z
					"/>
				<path fill="#FFFFFF" d="M10.943,34.75h5.511c-0.787,0.828-1.704,1.251-2.767,1.251C12.662,36.001,11.745,35.582,10.943,34.75z"
					/>
				<path fill="#FFFFFF" d="M16.392,2.45h-5.369C11.788,1.485,12.677,1,13.688,1c0.849,0,1.663,0.385,2.434,1.155
					C16.208,2.243,16.302,2.342,16.392,2.45z"/>
			</g>
			<g>
			</g>
		</g>
	</g>
</g>
<g id="Layer_3">
	<path fill="#FFFFFF" stroke="#2D59A8" stroke-miterlimit="10" d="M12.723,23.84c0.286,0.754,0.429,1.508,0.429,2.266
		c0,0.828-0.189,1.561-0.569,2.194c-0.379,0.638-0.849,0.952-1.405,0.952c-1.069,0-2.014-1.474-2.835-4.418l-2.732,3.218
		c0.644,2.493,1.415,4.319,2.319,5.482c0.137,0.183,0.283,0.339,0.429,0.493H0v-32.3h8.443c-0.24,0.298-0.463,0.638-0.678,1.031
		C6.864,4.41,6.413,6.394,6.413,8.705c0,1.603,0.27,3.205,0.811,4.816c0.544,1.606,1.744,3.893,3.603,6.849
		C11.803,21.927,12.437,23.082,12.723,23.84z"/>
</g>
<g id="Layer_4">
	<polygon fill="#FFFFFF" stroke="#2D59A8" stroke-miterlimit="10" points="54,2.038 54,34.338 45.939,34.338 39.549,16.299 
		45.262,2.038 	"/>
</g>
<g id="Layer_1">
</g>
</svg>
